The Kingdom
 
http://www.imdb.com/title/tt0431197/

Subs :

English

Source  :

The.Kingdom.2007.HDDVD.1080p.DTS.VC1.Remux.PATCHED-EuReKa

Info :

D                               : 1
Format                           : AVC
Format/Info                      : Advanced Video Codec
Format profile                   : Baseline@L3.0
Format settings, CABAC           : No
Format settings, ReFrames        : 3 frames
Codec ID                         : avc1
Codec ID/Info                    : Advanced Video Coding
Duration                         : 1h 50mn
Bit rate mode                    : Variable
Bit rate                         : 400 Kbps
Width                            : 480 pixels
Height                           : 272 pixels
Display aspect ratio             : 16:9
Frame rate mode                  : Variable
Frame rate                       : 23.976 fps
Minimum frame rate               : 23.810 fps
Maximum frame rate               : 24.390 fps
Color space                      : YUV
Chroma subsampling               : 4:2:0
Bit depth                        : 8 bits
Scan type                        : Progressive
Bits/(Pixel*Frame)               : 0.128
Stream size                      : 315 MiB (75%)
Writing library                  : x264 core 79

ID                               : 2
Format                           : AAC
Format/Info                      : Advanced Audio Codec
Format version                   : Version 4
Format profile                   : LC
Format settings, SBR             : No
Codec ID                         : 40
Duration                         : 1h 50mn
Bit rate mode                    : Variable
Bit rate                         : 128 Kbps
Maximum bit rate                 : 207 Kbps
Channel(s)                       : 2 channels
Channel positions                : Front: L R
Sampling rate                    : 48.0 KHz
Stream size                      : 101 MiB (24%)
Language                         : English

Screens:
 
http://img256.imageshack.us/img256/4944/thekingdomooom4vthumbs2.jpg


THIS IS THE LAST TORRENT U WILL SEE FROM OOO FOR A WHILE.
IM GOING ON A LONG AS HOLIDAY - SO U ALL HAVE A GOOD SUMMER! =)

THANKS TO ALL THE SEEDERS OUT THERE! 

THANKS TO ALL THAT SUPPORTED ME!!

I'LL BE BACK... lol
 
http://thepiratebay.org/user/on.off.on/ -OOO